G04*
G04 #@! TF.GenerationSoftware,Altium Limited,Altium Designer,21.6.4 (81)*
G04*
G04 Layer_Color=16711935*
%FSLAX25Y25*%
%MOIN*%
G70*
G04*
G04 #@! TF.SameCoordinates,A847D882-0BDF-4909-9EFC-D743794CE1D5*
G04*
G04*
G04 #@! TF.FilePolarity,Negative*
G04*
G01*
G75*
%ADD29C,0.18800*%
%ADD30R,0.07493X0.07493*%
%ADD31C,0.07493*%
%ADD32C,0.24422*%
%ADD33C,0.05800*%
D29*
X107500Y55000D02*
D03*
Y30000D02*
D03*
X127500Y42500D02*
D03*
D30*
X62500Y210000D02*
D03*
X302500D02*
D03*
D31*
X52500D02*
D03*
X62500Y200000D02*
D03*
X52500D02*
D03*
X62500Y190000D02*
D03*
X52500D02*
D03*
X62500Y180000D02*
D03*
X52500D02*
D03*
X62500Y170000D02*
D03*
X52500D02*
D03*
X62500Y160000D02*
D03*
X52500D02*
D03*
X62500Y150000D02*
D03*
X52500D02*
D03*
X62500Y140000D02*
D03*
X52500D02*
D03*
X62500Y130000D02*
D03*
X52500D02*
D03*
X62500Y120000D02*
D03*
X52500D02*
D03*
X62500Y110000D02*
D03*
X52500D02*
D03*
X62500Y100000D02*
D03*
X52500D02*
D03*
X62500Y90000D02*
D03*
X52500D02*
D03*
X62500Y80000D02*
D03*
X52500D02*
D03*
X62500Y70000D02*
D03*
X52500D02*
D03*
X62500Y60000D02*
D03*
X52500D02*
D03*
X62500Y50000D02*
D03*
X52500D02*
D03*
X62500Y40000D02*
D03*
X52500D02*
D03*
X62500Y30000D02*
D03*
X52500D02*
D03*
X292500Y210000D02*
D03*
X302500Y200000D02*
D03*
X292500D02*
D03*
X302500Y190000D02*
D03*
X292500D02*
D03*
X302500Y180000D02*
D03*
X292500D02*
D03*
X302500Y170000D02*
D03*
X292500D02*
D03*
X302500Y160000D02*
D03*
X292500D02*
D03*
X302500Y150000D02*
D03*
X292500D02*
D03*
X302500Y140000D02*
D03*
X292500D02*
D03*
X302500Y130000D02*
D03*
X292500D02*
D03*
X302500Y120000D02*
D03*
X292500D02*
D03*
X302500Y110000D02*
D03*
X292500D02*
D03*
X302500Y100000D02*
D03*
X292500D02*
D03*
X302500Y90000D02*
D03*
X292500D02*
D03*
X302500Y80000D02*
D03*
X292500D02*
D03*
X302500Y70000D02*
D03*
X292500D02*
D03*
X302500Y60000D02*
D03*
X292500D02*
D03*
X302500Y50000D02*
D03*
X292500D02*
D03*
X302500Y40000D02*
D03*
X292500D02*
D03*
X302500Y30000D02*
D03*
X292500D02*
D03*
D32*
X20000Y210000D02*
D03*
X335000D02*
D03*
Y20000D02*
D03*
X20000D02*
D03*
D33*
X70000Y65000D02*
D03*
X71100Y96100D02*
D03*
X72500Y102500D02*
D03*
X68690Y175244D02*
D03*
X280000Y67500D02*
D03*
X272500Y70000D02*
D03*
X265000Y85000D02*
D03*
Y160000D02*
D03*
Y217500D02*
D03*
X78904Y132716D02*
D03*
X235000Y222500D02*
D03*
X217500Y220000D02*
D03*
X80000Y170474D02*
D03*
X72505Y137495D02*
D03*
X70000Y167500D02*
D03*
X235000Y207500D02*
D03*
X217500D02*
D03*
X235000Y187500D02*
D03*
X217500D02*
D03*
X235000Y170000D02*
D03*
X217500D02*
D03*
X235000Y150000D02*
D03*
X217500D02*
D03*
X235000Y132500D02*
D03*
X217500D02*
D03*
X235000Y115000D02*
D03*
X217500D02*
D03*
X235000Y95000D02*
D03*
X217500D02*
D03*
X235000Y77500D02*
D03*
X217500D02*
D03*
X200000D02*
D03*
X182500D02*
D03*
X165000D02*
D03*
Y95000D02*
D03*
X182500D02*
D03*
X200000D02*
D03*
Y115000D02*
D03*
X182500D02*
D03*
X165000D02*
D03*
Y132500D02*
D03*
X182500D02*
D03*
X200000D02*
D03*
Y150000D02*
D03*
X182500D02*
D03*
X165000D02*
D03*
X200000Y170000D02*
D03*
X182500D02*
D03*
X200000Y187500D02*
D03*
X165000D02*
D03*
X182500D02*
D03*
X200000Y207500D02*
D03*
X182500D02*
D03*
X165000D02*
D03*
X147500D02*
D03*
Y187500D02*
D03*
Y170000D02*
D03*
Y150000D02*
D03*
Y132500D02*
D03*
Y115000D02*
D03*
Y95000D02*
D03*
Y77500D02*
D03*
X112500D02*
D03*
X130000D02*
D03*
X112500Y115000D02*
D03*
X130000D02*
D03*
Y132500D02*
D03*
X112500Y150000D02*
D03*
X130000D02*
D03*
Y170000D02*
D03*
Y187500D02*
D03*
Y207500D02*
D03*
X112500Y95000D02*
D03*
Y132500D02*
D03*
Y170000D02*
D03*
Y187500D02*
D03*
Y207500D02*
D03*
X265000Y105000D02*
D03*
X230000Y60000D02*
D03*
X202500D02*
D03*
X197500Y25000D02*
D03*
X225657Y17500D02*
D03*
X172500Y35000D02*
D03*
X265000Y75000D02*
D03*
X257500Y35000D02*
D03*
X32500Y182500D02*
D03*
X285000Y117500D02*
D03*
Y135000D02*
D03*
X165000Y170000D02*
D03*
X130000Y95000D02*
D03*
X285000Y155000D02*
D03*
X265000Y122500D02*
D03*
Y142500D02*
D03*
Y180000D02*
D03*
Y197500D02*
D03*
M02*
