G04*
G04 #@! TF.GenerationSoftware,Altium Limited,Altium Designer,21.6.4 (81)*
G04*
G04 Layer_Color=65535*
%FSLAX25Y25*%
%MOIN*%
G70*
G04*
G04 #@! TF.SameCoordinates,A847D882-0BDF-4909-9EFC-D743794CE1D5*
G04*
G04*
G04 #@! TF.FilePolarity,Positive*
G04*
G01*
G75*
%ADD10C,0.00787*%
%ADD11C,0.00984*%
%ADD12C,0.02362*%
%ADD13C,0.01000*%
%ADD14C,0.00500*%
D10*
X92756Y94232D02*
G03*
X92756Y94232I-394J0D01*
G01*
X101437Y203191D02*
X108524D01*
X101437Y218545D02*
X108524D01*
Y203191D02*
Y218545D01*
X101437Y203191D02*
Y218545D01*
Y184619D02*
X108524D01*
X101437Y199974D02*
X108524D01*
Y184619D02*
Y199974D01*
X101437Y184619D02*
Y199974D01*
Y166048D02*
X108524D01*
X101437Y181402D02*
X108524D01*
Y166048D02*
Y181402D01*
X101437Y166048D02*
Y181402D01*
Y147476D02*
X108524D01*
X101437Y162831D02*
X108524D01*
Y147476D02*
Y162831D01*
X101437Y147476D02*
Y162831D01*
Y128905D02*
X108524D01*
X101437Y144259D02*
X108524D01*
Y128905D02*
Y144259D01*
X101437Y128905D02*
Y144259D01*
Y110334D02*
X108524D01*
X101437Y125688D02*
X108524D01*
Y110334D02*
Y125688D01*
X101437Y110334D02*
Y125688D01*
Y91762D02*
X108524D01*
X101437Y107116D02*
X108524D01*
Y91762D02*
Y107116D01*
X101437Y91762D02*
Y107116D01*
Y73191D02*
X108524D01*
X101437Y88545D02*
X108524D01*
Y73191D02*
Y88545D01*
X101437Y73191D02*
Y88545D01*
X118937Y203191D02*
X126024D01*
X118937Y218545D02*
X126024D01*
Y203191D02*
Y218545D01*
X118937Y203191D02*
Y218545D01*
Y184619D02*
X126024D01*
X118937Y199974D02*
X126024D01*
Y184619D02*
Y199974D01*
X118937Y184619D02*
Y199974D01*
Y166048D02*
X126024D01*
X118937Y181402D02*
X126024D01*
Y166048D02*
Y181402D01*
X118937Y166048D02*
Y181402D01*
Y147476D02*
X126024D01*
X118937Y162831D02*
X126024D01*
Y147476D02*
Y162831D01*
X118937Y147476D02*
Y162831D01*
Y128905D02*
X126024D01*
X118937Y144259D02*
X126024D01*
Y128905D02*
Y144259D01*
X118937Y128905D02*
Y144259D01*
Y110334D02*
X126024D01*
X118937Y125688D02*
X126024D01*
Y110334D02*
Y125688D01*
X118937Y110334D02*
Y125688D01*
Y91762D02*
X126024D01*
X118937Y107116D02*
X126024D01*
Y91762D02*
Y107116D01*
X118937Y91762D02*
Y107116D01*
Y73191D02*
X126024D01*
X118937Y88545D02*
X126024D01*
Y73191D02*
Y88545D01*
X118937Y73191D02*
Y88545D01*
X136437Y203191D02*
X143524D01*
X136437Y218545D02*
X143524D01*
Y203191D02*
Y218545D01*
X136437Y203191D02*
Y218545D01*
Y184619D02*
X143524D01*
X136437Y199974D02*
X143524D01*
Y184619D02*
Y199974D01*
X136437Y184619D02*
Y199974D01*
Y166048D02*
X143524D01*
X136437Y181402D02*
X143524D01*
Y166048D02*
Y181402D01*
X136437Y166048D02*
Y181402D01*
Y147476D02*
X143524D01*
X136437Y162831D02*
X143524D01*
Y147476D02*
Y162831D01*
X136437Y147476D02*
Y162831D01*
Y128905D02*
X143524D01*
X136437Y144259D02*
X143524D01*
Y128905D02*
Y144259D01*
X136437Y128905D02*
Y144259D01*
Y110334D02*
X143524D01*
X136437Y125688D02*
X143524D01*
Y110334D02*
Y125688D01*
X136437Y110334D02*
Y125688D01*
Y91762D02*
X143524D01*
X136437Y107116D02*
X143524D01*
Y91762D02*
Y107116D01*
X136437Y91762D02*
Y107116D01*
Y73191D02*
X143524D01*
X136437Y88545D02*
X143524D01*
Y73191D02*
Y88545D01*
X136437Y73191D02*
Y88545D01*
X153937Y203191D02*
X161024D01*
X153937Y218545D02*
X161024D01*
Y203191D02*
Y218545D01*
X153937Y203191D02*
Y218545D01*
Y184619D02*
X161024D01*
X153937Y199974D02*
X161024D01*
Y184619D02*
Y199974D01*
X153937Y184619D02*
Y199974D01*
Y166048D02*
X161024D01*
X153937Y181402D02*
X161024D01*
Y166048D02*
Y181402D01*
X153937Y166048D02*
Y181402D01*
Y147476D02*
X161024D01*
X153937Y162831D02*
X161024D01*
Y147476D02*
Y162831D01*
X153937Y147476D02*
Y162831D01*
Y128905D02*
X161024D01*
X153937Y144259D02*
X161024D01*
Y128905D02*
Y144259D01*
X153937Y128905D02*
Y144259D01*
Y110334D02*
X161024D01*
X153937Y125688D02*
X161024D01*
Y110334D02*
Y125688D01*
X153937Y110334D02*
Y125688D01*
Y91762D02*
X161024D01*
X153937Y107116D02*
X161024D01*
Y91762D02*
Y107116D01*
X153937Y91762D02*
Y107116D01*
Y73191D02*
X161024D01*
X153937Y88545D02*
X161024D01*
Y73191D02*
Y88545D01*
X153937Y73191D02*
Y88545D01*
X171437Y203191D02*
X178524D01*
X171437Y218545D02*
X178524D01*
Y203191D02*
Y218545D01*
X171437Y203191D02*
Y218545D01*
Y184619D02*
X178524D01*
X171437Y199974D02*
X178524D01*
Y184619D02*
Y199974D01*
X171437Y184619D02*
Y199974D01*
Y166048D02*
X178524D01*
X171437Y181402D02*
X178524D01*
Y166048D02*
Y181402D01*
X171437Y166048D02*
Y181402D01*
Y147476D02*
X178524D01*
X171437Y162831D02*
X178524D01*
Y147476D02*
Y162831D01*
X171437Y147476D02*
Y162831D01*
Y128905D02*
X178524D01*
X171437Y144259D02*
X178524D01*
Y128905D02*
Y144259D01*
X171437Y128905D02*
Y144259D01*
Y110334D02*
X178524D01*
X171437Y125688D02*
X178524D01*
Y110334D02*
Y125688D01*
X171437Y110334D02*
Y125688D01*
Y91762D02*
X178524D01*
X171437Y107116D02*
X178524D01*
Y91762D02*
Y107116D01*
X171437Y91762D02*
Y107116D01*
Y73191D02*
X178524D01*
X171437Y88545D02*
X178524D01*
Y73191D02*
Y88545D01*
X171437Y73191D02*
Y88545D01*
X188937Y203191D02*
X196024D01*
X188937Y218545D02*
X196024D01*
Y203191D02*
Y218545D01*
X188937Y203191D02*
Y218545D01*
Y184619D02*
X196024D01*
X188937Y199974D02*
X196024D01*
Y184619D02*
Y199974D01*
X188937Y184619D02*
Y199974D01*
Y166048D02*
X196024D01*
X188937Y181402D02*
X196024D01*
Y166048D02*
Y181402D01*
X188937Y166048D02*
Y181402D01*
Y147476D02*
X196024D01*
X188937Y162831D02*
X196024D01*
Y147476D02*
Y162831D01*
X188937Y147476D02*
Y162831D01*
Y128905D02*
X196024D01*
X188937Y144259D02*
X196024D01*
Y128905D02*
Y144259D01*
X188937Y128905D02*
Y144259D01*
Y110334D02*
X196024D01*
X188937Y125688D02*
X196024D01*
Y110334D02*
Y125688D01*
X188937Y110334D02*
Y125688D01*
Y91762D02*
X196024D01*
X188937Y107116D02*
X196024D01*
Y91762D02*
Y107116D01*
X188937Y91762D02*
Y107116D01*
Y73191D02*
X196024D01*
X188937Y88545D02*
X196024D01*
Y73191D02*
Y88545D01*
X188937Y73191D02*
Y88545D01*
X206437Y203191D02*
X213524D01*
X206437Y218545D02*
X213524D01*
Y203191D02*
Y218545D01*
X206437Y203191D02*
Y218545D01*
Y184619D02*
X213524D01*
X206437Y199974D02*
X213524D01*
Y184619D02*
Y199974D01*
X206437Y184619D02*
Y199974D01*
Y166048D02*
X213524D01*
X206437Y181402D02*
X213524D01*
Y166048D02*
Y181402D01*
X206437Y166048D02*
Y181402D01*
Y147476D02*
X213524D01*
X206437Y162831D02*
X213524D01*
Y147476D02*
Y162831D01*
X206437Y147476D02*
Y162831D01*
Y128905D02*
X213524D01*
X206437Y144259D02*
X213524D01*
Y128905D02*
Y144259D01*
X206437Y128905D02*
Y144259D01*
Y110334D02*
X213524D01*
X206437Y125688D02*
X213524D01*
Y110334D02*
Y125688D01*
X206437Y110334D02*
Y125688D01*
Y91762D02*
X213524D01*
X206437Y107116D02*
X213524D01*
Y91762D02*
Y107116D01*
X206437Y91762D02*
Y107116D01*
Y73191D02*
X213524D01*
X206437Y88545D02*
X213524D01*
Y73191D02*
Y88545D01*
X206437Y73191D02*
Y88545D01*
X223937Y203191D02*
X231024D01*
X223937Y218545D02*
X231024D01*
Y203191D02*
Y218545D01*
X223937Y203191D02*
Y218545D01*
Y184619D02*
X231024D01*
X223937Y199974D02*
X231024D01*
Y184619D02*
Y199974D01*
X223937Y184619D02*
Y199974D01*
Y166048D02*
X231024D01*
X223937Y181402D02*
X231024D01*
Y166048D02*
Y181402D01*
X223937Y166048D02*
Y181402D01*
Y147476D02*
X231024D01*
X223937Y162831D02*
X231024D01*
Y147476D02*
Y162831D01*
X223937Y147476D02*
Y162831D01*
Y128905D02*
X231024D01*
X223937Y144259D02*
X231024D01*
Y128905D02*
Y144259D01*
X223937Y128905D02*
Y144259D01*
Y110334D02*
X231024D01*
X223937Y125688D02*
X231024D01*
Y110334D02*
Y125688D01*
X223937Y110334D02*
Y125688D01*
Y91762D02*
X231024D01*
X223937Y107116D02*
X231024D01*
Y91762D02*
Y107116D01*
X223937Y91762D02*
Y107116D01*
Y73191D02*
X231024D01*
X223937Y88545D02*
X231024D01*
Y73191D02*
Y88545D01*
X223937Y73191D02*
Y88545D01*
X250925D02*
X254075D01*
X250925Y77522D02*
X254075D01*
X250925D02*
Y88545D01*
X254075Y77522D02*
Y88545D01*
X250925Y107116D02*
X254075D01*
X250925Y96093D02*
X254075D01*
X250925D02*
Y107116D01*
X254075Y96093D02*
Y107116D01*
X250925Y125688D02*
X254075D01*
X250925Y114664D02*
X254075D01*
X250925D02*
Y125688D01*
X254075Y114664D02*
Y125688D01*
X250925Y144259D02*
X254075D01*
X250925Y133236D02*
X254075D01*
X250925D02*
Y144259D01*
X254075Y133236D02*
Y144259D01*
X250925Y162831D02*
X254075D01*
X250925Y151807D02*
X254075D01*
X250925D02*
Y162831D01*
X254075Y151807D02*
Y162831D01*
X250925Y181402D02*
X254075D01*
X250925Y170379D02*
X254075D01*
X250925D02*
Y181402D01*
X254075Y170379D02*
Y181402D01*
X250925Y199974D02*
X254075D01*
X250925Y188950D02*
X254075D01*
X250925D02*
Y199974D01*
X254075Y188950D02*
Y199974D01*
X250925Y218545D02*
X254075D01*
X250925Y207521D02*
X254075D01*
X250925D02*
Y218545D01*
X254075Y207521D02*
Y218545D01*
X72461Y162716D02*
X92539D01*
X72461Y177284D02*
X92539D01*
X72461Y162716D02*
Y177284D01*
X92539Y162716D02*
Y177284D01*
X89921Y207520D02*
Y222480D01*
X69449D02*
X89921D01*
X69449Y207520D02*
Y222480D01*
Y207520D02*
X89921D01*
X83051Y193701D02*
Y195177D01*
X76949Y193701D02*
X83051D01*
X76949D02*
Y195177D01*
X83051Y204823D02*
Y206299D01*
X76949D02*
X83051D01*
X76949Y204823D02*
Y206299D01*
X83051Y195177D02*
Y204823D01*
X76949Y195177D02*
Y204823D01*
X75551Y195177D02*
Y204823D01*
X69449Y195177D02*
Y204823D01*
X75551Y193701D02*
Y195177D01*
X69449Y193701D02*
X75551D01*
X69449D02*
Y204823D01*
Y206299D01*
X75551D01*
Y204823D02*
Y206299D01*
X69449Y112677D02*
Y122323D01*
X75551Y112677D02*
Y122323D01*
X69449D02*
Y123799D01*
X75551D01*
Y112677D02*
Y123799D01*
Y111201D02*
Y112677D01*
X69449Y111201D02*
X75551D01*
X69449D02*
Y112677D01*
X240177Y58051D02*
X249823D01*
X240177Y51949D02*
X249823D01*
Y58051D02*
X251299D01*
Y51949D02*
Y58051D01*
X249823Y51949D02*
X251299D01*
X238701Y58051D02*
X240177D01*
X238701Y51949D02*
Y58051D01*
Y51949D02*
X240177D01*
X145177Y30551D02*
X154823D01*
X145177Y24449D02*
X154823D01*
Y30551D02*
X156299D01*
Y24449D02*
Y30551D01*
X145177Y24449D02*
X156299D01*
X143701D02*
X145177D01*
X143701D02*
Y30551D01*
X145177D01*
X269429Y207521D02*
X279075D01*
X269429Y213624D02*
X279075D01*
X267953Y207521D02*
X269429D01*
X267953D02*
Y213624D01*
X269429D01*
X279075Y207521D02*
X280551D01*
Y213624D01*
X279075D02*
X280551D01*
X269429Y170379D02*
X279075D01*
X269429Y176481D02*
X279075D01*
X267953Y170379D02*
X269429D01*
X267953D02*
Y176481D01*
X269429D01*
X279075Y170379D02*
X280551D01*
Y176481D01*
X279075D02*
X280551D01*
X269429Y188950D02*
X279075D01*
X269429Y195052D02*
X279075D01*
X267953Y188950D02*
X269429D01*
X267953D02*
Y195052D01*
X269429D01*
X279075Y188950D02*
X280551D01*
Y195052D01*
X279075D02*
X280551D01*
X269429Y77522D02*
X279075D01*
X269429Y83624D02*
X279075D01*
X267953Y77522D02*
X269429D01*
X267953D02*
Y83624D01*
X269429D01*
X279075Y77522D02*
X280551D01*
Y83624D01*
X279075D02*
X280551D01*
X269429Y114664D02*
X279075D01*
X269429Y120767D02*
X279075D01*
X267953Y114664D02*
X269429D01*
X267953D02*
Y120767D01*
X269429D01*
X279075Y114664D02*
X280551D01*
Y120767D01*
X279075D02*
X280551D01*
X269429Y133236D02*
X279075D01*
X269429Y139338D02*
X279075D01*
X267953Y133236D02*
X269429D01*
X267953D02*
Y139338D01*
X269429D01*
X279075Y133236D02*
X280551D01*
Y139338D01*
X279075D02*
X280551D01*
X269429Y151807D02*
X279075D01*
X269429Y157910D02*
X279075D01*
X267953Y151807D02*
X269429D01*
X267953D02*
Y157910D01*
X269429D01*
X279075Y151807D02*
X280551D01*
Y157910D01*
X279075D02*
X280551D01*
X269429Y96093D02*
X279075D01*
X269429Y102195D02*
X279075D01*
X267953Y96093D02*
X269429D01*
X267953D02*
Y102195D01*
X269429D01*
X279075Y96093D02*
X280551D01*
Y102195D01*
X279075D02*
X280551D01*
X72953Y15352D02*
Y30706D01*
X80039Y15352D02*
Y30706D01*
X72953D02*
X80039D01*
X72953Y15352D02*
X80039D01*
X266201Y51949D02*
X267677D01*
X266201D02*
Y58051D01*
X267677D01*
X277323Y51949D02*
X278799D01*
Y58051D01*
X277323D02*
X278799D01*
X267677Y51949D02*
X277323D01*
X267677Y58051D02*
X277323D01*
X211201Y51949D02*
X212677D01*
X211201D02*
Y58051D01*
X212677D01*
X222323Y51949D02*
X223799D01*
Y58051D01*
X222323D02*
X223799D01*
X212677Y51949D02*
X222323D01*
X212677Y58051D02*
X222323D01*
X183701Y51949D02*
X185177D01*
X183701D02*
Y58051D01*
X185177D01*
X194823Y51949D02*
X196299D01*
Y58051D01*
X194823D02*
X196299D01*
X185177Y51949D02*
X194823D01*
X185177Y58051D02*
X194823D01*
X80039Y40436D02*
Y41912D01*
X73937Y40436D02*
X80039D01*
X73937D02*
Y41912D01*
X80039Y51558D02*
Y53034D01*
X73937D02*
X80039D01*
X73937Y51558D02*
Y53034D01*
X80039Y41912D02*
Y51558D01*
X73937Y41912D02*
Y51558D01*
X142677Y47520D02*
Y62480D01*
X169252D01*
Y47520D02*
Y62480D01*
X142677Y47520D02*
X169252D01*
D11*
X70984Y157992D02*
G03*
X70984Y157992I-492J0D01*
G01*
D12*
X77579Y166654D02*
G03*
X77579Y166654I-1181J0D01*
G01*
D13*
X275315Y27500D02*
G03*
X275315Y27500I-5315J0D01*
G01*
X247815D02*
G03*
X247815Y27500I-5315J0D01*
G01*
X220315D02*
G03*
X220315Y27500I-5315J0D01*
G01*
X192815D02*
G03*
X192815Y27500I-5315J0D01*
G01*
X88996Y2787D02*
X126791D01*
X88996Y866D02*
Y57953D01*
Y866D02*
X126791D01*
Y52736D02*
Y57953D01*
Y866D02*
Y32165D01*
X117244Y57953D02*
X126791D01*
X88996D02*
X97756D01*
X168878Y9135D02*
Y18781D01*
X167598Y20061D02*
X168878Y18781D01*
X141122Y20061D02*
X167598D01*
X167795Y8053D02*
X168878Y9135D01*
X141122Y8053D02*
X167795D01*
X141122D02*
Y20061D01*
X259500Y17500D02*
Y37500D01*
Y17500D02*
X280500D01*
Y37500D01*
X259500D02*
X280500D01*
X232000Y17500D02*
Y37500D01*
Y17500D02*
X253000D01*
Y37500D01*
X232000D02*
X253000D01*
X204500Y17500D02*
Y37500D01*
Y17500D02*
X225500D01*
Y37500D01*
X204500D02*
X225500D01*
X177000Y17500D02*
Y37500D01*
Y17500D02*
X198000D01*
Y37500D01*
X177000D02*
X198000D01*
X91370Y218057D02*
Y224055D01*
X94369D01*
X95369Y223056D01*
Y221056D01*
X94369Y220056D01*
X91370D01*
X97368Y218057D02*
X99368D01*
X98368D01*
Y224055D01*
X97368Y223056D01*
X81064Y99861D02*
Y95926D01*
X81851Y95139D01*
X83426D01*
X84213Y95926D01*
Y99861D01*
X85787Y99074D02*
X86574Y99861D01*
X88149D01*
X88936Y99074D01*
Y98287D01*
X88149Y97500D01*
X87361D01*
X88149D01*
X88936Y96713D01*
Y95926D01*
X88149Y95139D01*
X86574D01*
X85787Y95926D01*
X86064Y192361D02*
Y188426D01*
X86851Y187639D01*
X88426D01*
X89213Y188426D01*
Y192361D01*
X93936Y187639D02*
X90787D01*
X93936Y190787D01*
Y191574D01*
X93149Y192361D01*
X91574D01*
X90787Y191574D01*
X269786Y86266D02*
Y90989D01*
X272147D01*
X272935Y90202D01*
Y88628D01*
X272147Y87841D01*
X269786D01*
X271360D02*
X272935Y86266D01*
X274509Y90989D02*
X277658D01*
Y90202D01*
X274509Y87054D01*
Y86266D01*
X279232Y90989D02*
Y86266D01*
Y88628D01*
X282380D01*
Y90989D01*
Y86266D01*
X269786Y104843D02*
Y109565D01*
X272147D01*
X272935Y108778D01*
Y107204D01*
X272147Y106417D01*
X269786D01*
X271360D02*
X272935Y104843D01*
X274509Y109565D02*
X277658D01*
Y108778D01*
X274509Y105630D01*
Y104843D01*
X282380Y108778D02*
X281593Y109565D01*
X280019D01*
X279232Y108778D01*
Y105630D01*
X280019Y104843D01*
X281593D01*
X282380Y105630D01*
Y107204D01*
X280806D01*
X269786Y123419D02*
Y128142D01*
X272147D01*
X272935Y127355D01*
Y125780D01*
X272147Y124993D01*
X269786D01*
X271360D02*
X272935Y123419D01*
X274509Y128142D02*
X277658D01*
Y127355D01*
X274509Y124206D01*
Y123419D01*
X282380Y128142D02*
X279232D01*
Y125780D01*
X280806D01*
X279232D01*
Y123419D01*
X269786Y141995D02*
Y146718D01*
X272147D01*
X272935Y145931D01*
Y144357D01*
X272147Y143569D01*
X269786D01*
X271360D02*
X272935Y141995D01*
X274509Y146718D02*
X277658D01*
Y145931D01*
X274509Y142782D01*
Y141995D01*
X282380Y146718D02*
X279232D01*
Y141995D01*
X282380D01*
X279232Y144357D02*
X280806D01*
X269786Y160571D02*
Y165294D01*
X272147D01*
X272935Y164507D01*
Y162933D01*
X272147Y162146D01*
X269786D01*
X271360D02*
X272935Y160571D01*
X274509Y165294D02*
X277658D01*
Y164507D01*
X274509Y161358D01*
Y160571D01*
X279232Y165294D02*
Y160571D01*
X281593D01*
X282380Y161358D01*
Y164507D01*
X281593Y165294D01*
X279232D01*
X269786Y179148D02*
Y183870D01*
X272147D01*
X272935Y183083D01*
Y181509D01*
X272147Y180722D01*
X269786D01*
X271360D02*
X272935Y179148D01*
X274509Y183870D02*
X277658D01*
Y183083D01*
X274509Y179935D01*
Y179148D01*
X282380Y183083D02*
X281593Y183870D01*
X280019D01*
X279232Y183083D01*
Y179935D01*
X280019Y179148D01*
X281593D01*
X282380Y179935D01*
X269786Y197724D02*
Y202447D01*
X272147D01*
X272935Y201660D01*
Y200085D01*
X272147Y199298D01*
X269786D01*
X271360D02*
X272935Y197724D01*
X274509Y202447D02*
X277658D01*
Y201660D01*
X274509Y198511D01*
Y197724D01*
X279232Y202447D02*
Y197724D01*
X281593D01*
X282380Y198511D01*
Y199298D01*
X281593Y200085D01*
X279232D01*
X281593D01*
X282380Y200872D01*
Y201660D01*
X281593Y202447D01*
X279232D01*
X269786Y216300D02*
Y221023D01*
X272147D01*
X272935Y220236D01*
Y218661D01*
X272147Y217874D01*
X269786D01*
X271360D02*
X272935Y216300D01*
X274509Y221023D02*
X277658D01*
Y220236D01*
X274509Y217087D01*
Y216300D01*
X279232D02*
Y219449D01*
X280806Y221023D01*
X282380Y219449D01*
Y216300D01*
Y218661D01*
X279232D01*
X256064Y52639D02*
Y57361D01*
X258426D01*
X259213Y56574D01*
Y55000D01*
X258426Y54213D01*
X256064D01*
X257639D02*
X259213Y52639D01*
X263936Y57361D02*
X262361Y56574D01*
X260787Y55000D01*
Y53426D01*
X261574Y52639D01*
X263149D01*
X263936Y53426D01*
Y54213D01*
X263149Y55000D01*
X260787D01*
X228564Y52639D02*
Y57361D01*
X230926D01*
X231713Y56574D01*
Y55000D01*
X230926Y54213D01*
X228564D01*
X230139D02*
X231713Y52639D01*
X236436Y57361D02*
X233287D01*
Y55000D01*
X234861Y55787D01*
X235649D01*
X236436Y55000D01*
Y53426D01*
X235649Y52639D01*
X234074D01*
X233287Y53426D01*
X201064Y52639D02*
Y57361D01*
X203426D01*
X204213Y56574D01*
Y55000D01*
X203426Y54213D01*
X201064D01*
X202639D02*
X204213Y52639D01*
X208149D02*
Y57361D01*
X205787Y55000D01*
X208936D01*
X173564Y52639D02*
Y57361D01*
X175926D01*
X176713Y56574D01*
Y55000D01*
X175926Y54213D01*
X173564D01*
X175139D02*
X176713Y52639D01*
X178287Y56574D02*
X179074Y57361D01*
X180649D01*
X181436Y56574D01*
Y55787D01*
X180649Y55000D01*
X179861D01*
X180649D01*
X181436Y54213D01*
Y53426D01*
X180649Y52639D01*
X179074D01*
X178287Y53426D01*
X86064Y200139D02*
Y204861D01*
X88426D01*
X89213Y204074D01*
Y202500D01*
X88426Y201713D01*
X86064D01*
X87639D02*
X89213Y200139D01*
X93936D02*
X90787D01*
X93936Y203287D01*
Y204074D01*
X93149Y204861D01*
X91574D01*
X90787Y204074D01*
X74556Y54843D02*
Y59566D01*
X76918D01*
X77705Y58779D01*
Y57205D01*
X76918Y56418D01*
X74556D01*
X76130D02*
X77705Y54843D01*
X79279D02*
X80853D01*
X80066D01*
Y59566D01*
X79279Y58779D01*
X122500Y64861D02*
X120926D01*
X121713D01*
Y60926D01*
X120926Y60139D01*
X120139D01*
X119351Y60926D01*
X124074Y60139D02*
X125649D01*
X124861D01*
Y64861D01*
X124074Y64074D01*
X155875Y45668D02*
X152726D01*
Y43306D01*
X154301D01*
X152726D01*
Y40945D01*
X157449D02*
X159023D01*
X158236D01*
Y45668D01*
X157449Y44881D01*
X131064Y22361D02*
Y17639D01*
X133426D01*
X134213Y18426D01*
Y21574D01*
X133426Y22361D01*
X131064D01*
X135787Y18426D02*
X136574Y17639D01*
X138149D01*
X138936Y18426D01*
Y21574D01*
X138149Y22361D01*
X136574D01*
X135787Y21574D01*
Y20787D01*
X136574Y20000D01*
X138936D01*
X73624Y37231D02*
Y32508D01*
X75985D01*
X76772Y33295D01*
Y36444D01*
X75985Y37231D01*
X73624D01*
X78347Y36444D02*
X79134Y37231D01*
X80708D01*
X81495Y36444D01*
Y35657D01*
X80708Y34870D01*
X81495Y34082D01*
Y33295D01*
X80708Y32508D01*
X79134D01*
X78347Y33295D01*
Y34082D01*
X79134Y34870D01*
X78347Y35657D01*
Y36444D01*
X79134Y34870D02*
X80708D01*
X81713Y121574D02*
X80926Y122361D01*
X79351D01*
X78564Y121574D01*
Y118426D01*
X79351Y117639D01*
X80926D01*
X81713Y118426D01*
X83287Y121574D02*
X84074Y122361D01*
X85649D01*
X86436Y121574D01*
Y120787D01*
X85649Y120000D01*
X84861D01*
X85649D01*
X86436Y119213D01*
Y118426D01*
X85649Y117639D01*
X84074D01*
X83287Y118426D01*
X71713Y191574D02*
X70926Y192361D01*
X69351D01*
X68564Y191574D01*
Y188426D01*
X69351Y187639D01*
X70926D01*
X71713Y188426D01*
X76436Y187639D02*
X73287D01*
X76436Y190787D01*
Y191574D01*
X75649Y192361D01*
X74074D01*
X73287Y191574D01*
X146545Y36211D02*
X145758Y36998D01*
X144184D01*
X143397Y36211D01*
Y33062D01*
X144184Y32275D01*
X145758D01*
X146545Y33062D01*
X148120Y32275D02*
X149694D01*
X148907D01*
Y36998D01*
X148120Y36211D01*
X266064Y47361D02*
Y42639D01*
X268426D01*
X269213Y43426D01*
Y44213D01*
X268426Y45000D01*
X266064D01*
X268426D01*
X269213Y45787D01*
Y46574D01*
X268426Y47361D01*
X266064D01*
X270787Y46574D02*
X271574Y47361D01*
X273149D01*
X273936Y46574D01*
Y45787D01*
X273149Y45000D01*
X272361D01*
X273149D01*
X273936Y44213D01*
Y43426D01*
X273149Y42639D01*
X271574D01*
X270787Y43426D01*
X238564Y47361D02*
Y42639D01*
X240926D01*
X241713Y43426D01*
Y44213D01*
X240926Y45000D01*
X238564D01*
X240926D01*
X241713Y45787D01*
Y46574D01*
X240926Y47361D01*
X238564D01*
X246436Y42639D02*
X243287D01*
X246436Y45787D01*
Y46574D01*
X245649Y47361D01*
X244074D01*
X243287Y46574D01*
X211851Y47361D02*
Y42639D01*
X214213D01*
X215000Y43426D01*
Y44213D01*
X214213Y45000D01*
X211851D01*
X214213D01*
X215000Y45787D01*
Y46574D01*
X214213Y47361D01*
X211851D01*
X216574Y42639D02*
X218149D01*
X217361D01*
Y47361D01*
X216574Y46574D01*
X183564Y47361D02*
Y42639D01*
X185926D01*
X186713Y43426D01*
Y44213D01*
X185926Y45000D01*
X183564D01*
X185926D01*
X186713Y45787D01*
Y46574D01*
X185926Y47361D01*
X183564D01*
X188287Y46574D02*
X189074Y47361D01*
X190649D01*
X191436Y46574D01*
Y43426D01*
X190649Y42639D01*
X189074D01*
X188287Y43426D01*
Y46574D01*
D14*
X92441Y69646D02*
Y85354D01*
X72559Y69646D02*
Y85354D01*
M02*
