G04*
G04 #@! TF.GenerationSoftware,Altium Limited,Altium Designer,21.6.4 (81)*
G04*
G04 Layer_Physical_Order=2*
G04 Layer_Color=16711680*
%FSLAX25Y25*%
%MOIN*%
G70*
G04*
G04 #@! TF.SameCoordinates,A847D882-0BDF-4909-9EFC-D743794CE1D5*
G04*
G04*
G04 #@! TF.FilePolarity,Positive*
G04*
G01*
G75*
%ADD13C,0.01000*%
%ADD48C,0.02000*%
%ADD49C,0.02500*%
%ADD50C,0.01500*%
%ADD52C,0.18000*%
%ADD53R,0.06693X0.06693*%
%ADD54C,0.06693*%
%ADD55C,0.23622*%
%ADD56C,0.05000*%
G36*
X288222Y186717D02*
X289217Y185722D01*
X290436Y185018D01*
X291469Y184741D01*
Y184223D01*
X290822Y184050D01*
X289831Y183478D01*
X289022Y182669D01*
X288450Y181678D01*
X288154Y180572D01*
Y180500D01*
X292500D01*
Y179500D01*
X288154D01*
Y179428D01*
X288450Y178322D01*
X289022Y177331D01*
X289831Y176522D01*
X290822Y175950D01*
X291469Y175777D01*
Y175259D01*
X290436Y174982D01*
X289217Y174278D01*
X288222Y173283D01*
X287518Y172064D01*
X287154Y170704D01*
Y169296D01*
X287518Y167936D01*
X288222Y166717D01*
X289217Y165722D01*
X289967Y165289D01*
Y164711D01*
X289217Y164278D01*
X288222Y163283D01*
X287518Y162064D01*
X287154Y160704D01*
Y159530D01*
X286876Y159306D01*
X286709Y159216D01*
X286676Y159210D01*
X285592Y159500D01*
X284408D01*
X283263Y159193D01*
X282237Y158601D01*
X281399Y157763D01*
X280807Y156737D01*
X280500Y155592D01*
Y154408D01*
X280807Y153263D01*
X281399Y152237D01*
X282237Y151399D01*
X283263Y150807D01*
X284408Y150500D01*
X285592D01*
X286676Y150790D01*
X286709Y150784D01*
X286876Y150694D01*
X287154Y150470D01*
Y149296D01*
X287518Y147936D01*
X288222Y146717D01*
X289217Y145722D01*
X289967Y145289D01*
Y144711D01*
X289217Y144278D01*
X288222Y143283D01*
X287518Y142064D01*
X287154Y140704D01*
Y139530D01*
X286876Y139306D01*
X286709Y139216D01*
X286676Y139210D01*
X285592Y139500D01*
X284408D01*
X283263Y139193D01*
X282237Y138601D01*
X281399Y137763D01*
X280807Y136737D01*
X280500Y135592D01*
Y134408D01*
X280807Y133263D01*
X281399Y132237D01*
X282237Y131399D01*
X283263Y130807D01*
X284408Y130500D01*
X285592D01*
X286676Y130790D01*
X286709Y130784D01*
X286876Y130694D01*
X287154Y130470D01*
Y129296D01*
X287518Y127936D01*
X288222Y126717D01*
X289217Y125722D01*
X290436Y125018D01*
X291469Y124741D01*
Y124223D01*
X290822Y124050D01*
X289831Y123478D01*
X289022Y122669D01*
X288450Y121678D01*
X288312Y121164D01*
X287829Y121035D01*
X287763Y121101D01*
X286737Y121693D01*
X285592Y122000D01*
X284408D01*
X283263Y121693D01*
X282237Y121101D01*
X281399Y120263D01*
X280807Y119237D01*
X280500Y118092D01*
Y116908D01*
X280807Y115763D01*
X281399Y114737D01*
X282237Y113899D01*
X282451Y113776D01*
Y71781D01*
X282018Y71531D01*
X281737Y71693D01*
X280592Y72000D01*
X279408D01*
X278263Y71693D01*
X277362Y71173D01*
X276810Y71303D01*
X276693Y71737D01*
X276101Y72763D01*
X275263Y73601D01*
X274237Y74193D01*
X273092Y74500D01*
X271908D01*
X270763Y74193D01*
X269813Y73645D01*
X269577Y73755D01*
X269377Y73948D01*
X269500Y74408D01*
Y75592D01*
X269193Y76737D01*
X268601Y77763D01*
X268026Y78338D01*
Y81662D01*
X268601Y82237D01*
X269193Y83263D01*
X269500Y84408D01*
Y85592D01*
X269193Y86737D01*
X268601Y87763D01*
X268026Y88338D01*
Y101662D01*
X268601Y102237D01*
X269193Y103263D01*
X269500Y104408D01*
Y105592D01*
X269193Y106737D01*
X268601Y107763D01*
X268026Y108338D01*
Y119162D01*
X268601Y119737D01*
X269193Y120763D01*
X269500Y121908D01*
Y123092D01*
X269193Y124237D01*
X268601Y125263D01*
X268026Y125838D01*
Y139162D01*
X268601Y139737D01*
X269193Y140763D01*
X269500Y141908D01*
Y143092D01*
X269193Y144237D01*
X268601Y145263D01*
X268026Y145838D01*
Y156662D01*
X268601Y157237D01*
X269193Y158263D01*
X269500Y159408D01*
Y160592D01*
X269193Y161737D01*
X268601Y162763D01*
X268026Y163338D01*
Y176662D01*
X268601Y177237D01*
X269193Y178263D01*
X269500Y179408D01*
Y180592D01*
X269193Y181737D01*
X268601Y182763D01*
X268026Y183338D01*
Y186974D01*
X288073D01*
X288222Y186717D01*
D02*
G37*
G36*
X309951Y125798D02*
Y53556D01*
X308042Y51647D01*
X307559Y51776D01*
X307482Y52064D01*
X306778Y53283D01*
X305783Y54278D01*
X305033Y54711D01*
Y55289D01*
X305783Y55722D01*
X306778Y56717D01*
X307482Y57936D01*
X307846Y59296D01*
Y60704D01*
X307482Y62064D01*
X306778Y63283D01*
X305783Y64278D01*
X305033Y64711D01*
Y65289D01*
X305783Y65722D01*
X306778Y66717D01*
X307482Y67936D01*
X307846Y69296D01*
Y70704D01*
X307482Y72064D01*
X306778Y73283D01*
X305783Y74278D01*
X305033Y74711D01*
Y75289D01*
X305783Y75722D01*
X306778Y76717D01*
X307482Y77936D01*
X307846Y79296D01*
Y80704D01*
X307482Y82064D01*
X306778Y83283D01*
X305783Y84278D01*
X305033Y84711D01*
Y85289D01*
X305783Y85722D01*
X306778Y86717D01*
X307482Y87936D01*
X307846Y89296D01*
Y90704D01*
X307482Y92064D01*
X306778Y93283D01*
X305783Y94278D01*
X305033Y94711D01*
Y95289D01*
X305783Y95722D01*
X306778Y96717D01*
X307482Y97936D01*
X307846Y99296D01*
Y100704D01*
X307482Y102064D01*
X306778Y103283D01*
X305783Y104278D01*
X305033Y104711D01*
Y105289D01*
X305783Y105722D01*
X306778Y106717D01*
X307482Y107936D01*
X307846Y109296D01*
Y110704D01*
X307482Y112064D01*
X306778Y113283D01*
X305783Y114278D01*
X304564Y114982D01*
X303531Y115259D01*
Y115777D01*
X304178Y115950D01*
X305169Y116522D01*
X305978Y117331D01*
X306550Y118322D01*
X306846Y119428D01*
Y119500D01*
X302500D01*
X298153D01*
Y119428D01*
X298450Y118322D01*
X299022Y117331D01*
X299831Y116522D01*
X300822Y115950D01*
X301469Y115777D01*
Y115259D01*
X300436Y114982D01*
X299217Y114278D01*
X298222Y113283D01*
X297518Y112064D01*
X297241Y111031D01*
X296724D01*
X296550Y111678D01*
X295978Y112669D01*
X295169Y113478D01*
X294178Y114050D01*
X293072Y114347D01*
X293000D01*
Y110000D01*
X292500D01*
Y109500D01*
X288154D01*
Y109428D01*
X288450Y108322D01*
X289022Y107331D01*
X289831Y106522D01*
X290822Y105950D01*
X291469Y105777D01*
Y105259D01*
X290436Y104982D01*
X289217Y104278D01*
X288222Y103283D01*
X288032Y102954D01*
X287549Y103083D01*
Y113776D01*
X287763Y113899D01*
X288601Y114737D01*
X289193Y115763D01*
X289358Y116379D01*
X289903Y116480D01*
X290822Y115950D01*
X291928Y115654D01*
X292000D01*
Y120000D01*
X292500D01*
Y120500D01*
X296847D01*
Y120572D01*
X296550Y121678D01*
X295978Y122669D01*
X295169Y123478D01*
X294178Y124050D01*
X293531Y124223D01*
Y124741D01*
X294564Y125018D01*
X295783Y125722D01*
X296778Y126717D01*
X297211Y127467D01*
X297789D01*
X298222Y126717D01*
X299217Y125722D01*
X300436Y125018D01*
X301469Y124741D01*
Y124223D01*
X300822Y124050D01*
X299831Y123478D01*
X299022Y122669D01*
X298450Y121678D01*
X298153Y120572D01*
Y120500D01*
X302500D01*
X306846D01*
Y120572D01*
X306550Y121678D01*
X305978Y122669D01*
X305169Y123478D01*
X304178Y124050D01*
X303531Y124223D01*
Y124741D01*
X304564Y125018D01*
X305783Y125722D01*
X306778Y126717D01*
X307344Y127698D01*
X307932Y127817D01*
X309951Y125798D01*
D02*
G37*
G36*
X230500Y222500D02*
Y221908D01*
X230807Y220763D01*
X231399Y219737D01*
X232226Y218910D01*
Y211090D01*
X231399Y210263D01*
X230807Y209237D01*
X230500Y208092D01*
Y206908D01*
X230807Y205763D01*
X231399Y204737D01*
X232226Y203910D01*
Y191090D01*
X231399Y190263D01*
X230807Y189237D01*
X230500Y188092D01*
Y186908D01*
X230807Y185763D01*
X231399Y184737D01*
X232226Y183910D01*
Y173590D01*
X231399Y172763D01*
X230807Y171737D01*
X230500Y170592D01*
Y169408D01*
X230807Y168263D01*
X231399Y167237D01*
X232226Y166410D01*
Y153590D01*
X231399Y152763D01*
X230807Y151737D01*
X230500Y150592D01*
Y149408D01*
X230807Y148263D01*
X231399Y147237D01*
X232226Y146410D01*
Y136090D01*
X231399Y135263D01*
X230807Y134237D01*
X230500Y133092D01*
Y131908D01*
X230807Y130763D01*
X231399Y129737D01*
X232226Y128910D01*
Y118590D01*
X231399Y117763D01*
X230807Y116737D01*
X230500Y115592D01*
Y114408D01*
X230807Y113263D01*
X231399Y112237D01*
X232226Y111410D01*
Y98590D01*
X231399Y97763D01*
X230807Y96737D01*
X230500Y95592D01*
Y94408D01*
X230807Y93263D01*
X231399Y92237D01*
X232226Y91410D01*
Y81090D01*
X231399Y80263D01*
X230807Y79237D01*
X230500Y78092D01*
Y76908D01*
X230807Y75763D01*
X231399Y74737D01*
X232237Y73899D01*
X233263Y73307D01*
X234408Y73000D01*
X235592D01*
X236737Y73307D01*
X237763Y73899D01*
X238601Y74737D01*
X239193Y75763D01*
X239500Y76908D01*
Y78092D01*
X239193Y79237D01*
X238601Y80263D01*
X237774Y81090D01*
Y91410D01*
X238601Y92237D01*
X239193Y93263D01*
X239500Y94408D01*
Y95592D01*
X239193Y96737D01*
X238601Y97763D01*
X237774Y98590D01*
Y111410D01*
X238601Y112237D01*
X239193Y113263D01*
X239500Y114408D01*
Y115592D01*
X239193Y116737D01*
X238601Y117763D01*
X237774Y118590D01*
Y128910D01*
X238601Y129737D01*
X239193Y130763D01*
X239500Y131908D01*
Y133092D01*
X239193Y134237D01*
X238601Y135263D01*
X237774Y136090D01*
Y146410D01*
X238601Y147237D01*
X239193Y148263D01*
X239500Y149408D01*
Y150592D01*
X239193Y151737D01*
X238601Y152763D01*
X237774Y153590D01*
Y166410D01*
X238601Y167237D01*
X239193Y168263D01*
X239500Y169408D01*
Y170592D01*
X239193Y171737D01*
X238601Y172763D01*
X237774Y173590D01*
Y183910D01*
X238601Y184737D01*
X239193Y185763D01*
X239500Y186908D01*
Y188092D01*
X239193Y189237D01*
X238601Y190263D01*
X237774Y191090D01*
Y203910D01*
X238601Y204737D01*
X239193Y205763D01*
X239500Y206908D01*
Y208092D01*
X239193Y209237D01*
X238601Y210263D01*
X237774Y211090D01*
Y218910D01*
X238601Y219737D01*
X239193Y220763D01*
X239500Y221908D01*
Y222500D01*
X328040D01*
X328157Y222014D01*
X327762Y221812D01*
X326003Y220534D01*
X324465Y218997D01*
X323188Y217238D01*
X322201Y215302D01*
X321529Y213234D01*
X321189Y211087D01*
Y208913D01*
X321529Y206766D01*
X322201Y204698D01*
X323188Y202761D01*
X324465Y201003D01*
X326003Y199466D01*
X327762Y198188D01*
X329698Y197201D01*
X331766Y196529D01*
X333913Y196189D01*
X336087D01*
X338234Y196529D01*
X340302Y197201D01*
X342238Y198188D01*
X343997Y199466D01*
X345534Y201003D01*
X346812Y202761D01*
X347014Y203157D01*
X347500Y203040D01*
Y26960D01*
X347014Y26843D01*
X346812Y27239D01*
X345534Y28997D01*
X343997Y30534D01*
X342238Y31812D01*
X340302Y32799D01*
X338234Y33471D01*
X336087Y33811D01*
X333913D01*
X331766Y33471D01*
X329698Y32799D01*
X327762Y31812D01*
X326003Y30534D01*
X324465Y28997D01*
X323188Y27239D01*
X322201Y25302D01*
X321529Y23234D01*
X321189Y21087D01*
Y18913D01*
X321529Y16766D01*
X322201Y14698D01*
X323188Y12762D01*
X324465Y11003D01*
X326003Y9465D01*
X327762Y8188D01*
X328157Y7986D01*
X328040Y7500D01*
X257404D01*
X257213Y7962D01*
X287068Y37817D01*
X287656Y37698D01*
X288222Y36717D01*
X289217Y35722D01*
X289967Y35289D01*
Y34711D01*
X289217Y34278D01*
X288222Y33283D01*
X287518Y32064D01*
X287154Y30704D01*
Y29296D01*
X287518Y27936D01*
X288222Y26717D01*
X289217Y25722D01*
X290436Y25018D01*
X291796Y24654D01*
X293204D01*
X294564Y25018D01*
X295783Y25722D01*
X296778Y26717D01*
X297211Y27467D01*
X297789D01*
X298222Y26717D01*
X299217Y25722D01*
X300436Y25018D01*
X301796Y24654D01*
X303204D01*
X304564Y25018D01*
X305783Y25722D01*
X306778Y26717D01*
X307482Y27936D01*
X307846Y29296D01*
Y30704D01*
X307627Y31522D01*
X319302Y43198D01*
X319855Y44025D01*
X320049Y45000D01*
Y150000D01*
X319855Y150976D01*
X319302Y151802D01*
X314302Y156802D01*
X313475Y157355D01*
X312500Y157549D01*
X307767D01*
X307512Y158049D01*
X307846Y159296D01*
Y160704D01*
X307482Y162064D01*
X306778Y163283D01*
X305783Y164278D01*
X305033Y164711D01*
Y165289D01*
X305783Y165722D01*
X306778Y166717D01*
X307482Y167936D01*
X307846Y169296D01*
Y170704D01*
X307482Y172064D01*
X306778Y173283D01*
X305783Y174278D01*
X305033Y174711D01*
Y175289D01*
X305783Y175722D01*
X306778Y176717D01*
X307482Y177936D01*
X307846Y179296D01*
Y180704D01*
X307482Y182064D01*
X306778Y183283D01*
X305783Y184278D01*
X305033Y184711D01*
Y185289D01*
X305783Y185722D01*
X306778Y186717D01*
X307482Y187936D01*
X307846Y189296D01*
Y190704D01*
X307482Y192064D01*
X306778Y193283D01*
X305783Y194278D01*
X305033Y194711D01*
Y195289D01*
X305783Y195722D01*
X306778Y196717D01*
X307482Y197936D01*
X307846Y199296D01*
Y200704D01*
X307482Y202064D01*
X306778Y203283D01*
X305908Y204153D01*
X306084Y204654D01*
X307846D01*
Y215347D01*
X297153D01*
Y213584D01*
X296654Y213407D01*
X295783Y214278D01*
X294564Y214982D01*
X293204Y215347D01*
X291796D01*
X290436Y214982D01*
X289217Y214278D01*
X288222Y213283D01*
X287518Y212064D01*
X287154Y210704D01*
Y209296D01*
X287518Y207936D01*
X288222Y206717D01*
X289217Y205722D01*
X289967Y205289D01*
Y204711D01*
X289217Y204278D01*
X288222Y203283D01*
X287518Y202064D01*
X287154Y200704D01*
Y199296D01*
X287518Y197936D01*
X288222Y196717D01*
X289217Y195722D01*
X289967Y195289D01*
Y194711D01*
X289217Y194278D01*
X288222Y193283D01*
X288073Y193026D01*
X268026D01*
Y194162D01*
X268601Y194737D01*
X269193Y195763D01*
X269500Y196908D01*
Y198092D01*
X269193Y199237D01*
X268601Y200263D01*
X268026Y200838D01*
Y214162D01*
X268601Y214737D01*
X269193Y215763D01*
X269500Y216908D01*
Y218092D01*
X269193Y219237D01*
X268601Y220263D01*
X267763Y221101D01*
X266737Y221693D01*
X265592Y222000D01*
X264408D01*
X263263Y221693D01*
X262237Y221101D01*
X261399Y220263D01*
X260807Y219237D01*
X260500Y218092D01*
Y216908D01*
X260807Y215763D01*
X261399Y214737D01*
X261974Y214162D01*
Y200838D01*
X261399Y200263D01*
X260807Y199237D01*
X260500Y198092D01*
Y196908D01*
X260807Y195763D01*
X261399Y194737D01*
X261974Y194162D01*
Y190000D01*
Y183338D01*
X261399Y182763D01*
X260807Y181737D01*
X260500Y180592D01*
Y179408D01*
X260807Y178263D01*
X261399Y177237D01*
X261974Y176662D01*
Y163338D01*
X261399Y162763D01*
X260807Y161737D01*
X260500Y160592D01*
Y159408D01*
X260807Y158263D01*
X261399Y157237D01*
X261974Y156662D01*
Y145838D01*
X261399Y145263D01*
X260807Y144237D01*
X260500Y143092D01*
Y141908D01*
X260807Y140763D01*
X261399Y139737D01*
X261974Y139162D01*
Y125838D01*
X261399Y125263D01*
X260807Y124237D01*
X260500Y123092D01*
Y121908D01*
X260807Y120763D01*
X261399Y119737D01*
X261974Y119162D01*
Y108338D01*
X261399Y107763D01*
X260807Y106737D01*
X260500Y105592D01*
Y104408D01*
X260807Y103263D01*
X261399Y102237D01*
X261974Y101662D01*
Y88338D01*
X261399Y87763D01*
X260807Y86737D01*
X260500Y85592D01*
Y84408D01*
X260807Y83263D01*
X261399Y82237D01*
X261974Y81662D01*
Y78338D01*
X261399Y77763D01*
X260807Y76737D01*
X260500Y75592D01*
Y74408D01*
X260807Y73263D01*
X261399Y72237D01*
X262237Y71399D01*
X263263Y70807D01*
X264408Y70500D01*
X265592D01*
X266737Y70807D01*
X267687Y71355D01*
X267923Y71245D01*
X268123Y71052D01*
X268000Y70592D01*
Y69762D01*
X235787Y37549D01*
X222500D01*
X221525Y37355D01*
X220698Y36802D01*
X198944Y15049D01*
X98556D01*
X79549Y34056D01*
Y84543D01*
X79355Y85518D01*
X78802Y86345D01*
X73383Y91764D01*
X73449Y92260D01*
X73863Y92499D01*
X74701Y93337D01*
X75055Y93951D01*
X79944D01*
X82451Y91444D01*
Y75000D01*
X82645Y74024D01*
X83198Y73198D01*
X90698Y65698D01*
X91524Y65145D01*
X92500Y64951D01*
X101730D01*
X101846Y64465D01*
X101735Y64408D01*
X100334Y63390D01*
X99110Y62166D01*
X98092Y60765D01*
X97306Y59223D01*
X96771Y57576D01*
X96500Y55866D01*
Y54134D01*
X96771Y52424D01*
X97306Y50778D01*
X98092Y49235D01*
X99110Y47834D01*
X100334Y46610D01*
X101735Y45592D01*
X103278Y44806D01*
X104924Y44271D01*
X106634Y44000D01*
X108366D01*
X110076Y44271D01*
X111723Y44806D01*
X113265Y45592D01*
X114666Y46610D01*
X115890Y47834D01*
X116908Y49235D01*
X117694Y50778D01*
X118229Y52424D01*
X118500Y54134D01*
Y55866D01*
X118229Y57576D01*
X117694Y59223D01*
X116908Y60765D01*
X115890Y62166D01*
X114666Y63390D01*
X113265Y64408D01*
X113154Y64465D01*
X113270Y64951D01*
X193287D01*
X198000Y60238D01*
Y59408D01*
X198307Y58263D01*
X198899Y57237D01*
X199737Y56399D01*
X200763Y55807D01*
X201908Y55500D01*
X203092D01*
X204237Y55807D01*
X205263Y56399D01*
X206101Y57237D01*
X206693Y58263D01*
X207000Y59408D01*
Y60592D01*
X206693Y61737D01*
X206101Y62763D01*
X205263Y63601D01*
X204237Y64193D01*
X203092Y64500D01*
X201908D01*
X201151Y64297D01*
X198459Y66989D01*
X198650Y67451D01*
X218944D01*
X225564Y60831D01*
X225500Y60592D01*
Y59408D01*
X225807Y58263D01*
X226399Y57237D01*
X227237Y56399D01*
X228263Y55807D01*
X229408Y55500D01*
X230592D01*
X231737Y55807D01*
X232763Y56399D01*
X233601Y57237D01*
X234193Y58263D01*
X234500Y59408D01*
Y60592D01*
X234193Y61737D01*
X233601Y62763D01*
X232763Y63601D01*
X231737Y64193D01*
X230592Y64500D01*
X229408D01*
X229169Y64436D01*
X221802Y71802D01*
X220975Y72355D01*
X220000Y72549D01*
X218341D01*
X218275Y73049D01*
X219237Y73307D01*
X220263Y73899D01*
X221101Y74737D01*
X221693Y75763D01*
X222000Y76908D01*
Y78092D01*
X221693Y79237D01*
X221101Y80263D01*
X220274Y81090D01*
Y91410D01*
X221101Y92237D01*
X221693Y93263D01*
X222000Y94408D01*
Y95592D01*
X221693Y96737D01*
X221101Y97763D01*
X220274Y98590D01*
Y111410D01*
X221101Y112237D01*
X221693Y113263D01*
X222000Y114408D01*
Y115592D01*
X221693Y116737D01*
X221101Y117763D01*
X220274Y118590D01*
Y128910D01*
X221101Y129737D01*
X221693Y130763D01*
X222000Y131908D01*
Y133092D01*
X221693Y134237D01*
X221101Y135263D01*
X220274Y136090D01*
Y146410D01*
X221101Y147237D01*
X221693Y148263D01*
X222000Y149408D01*
Y150592D01*
X221693Y151737D01*
X221101Y152763D01*
X220274Y153590D01*
Y166410D01*
X221101Y167237D01*
X221693Y168263D01*
X222000Y169408D01*
Y170592D01*
X221693Y171737D01*
X221101Y172763D01*
X220274Y173590D01*
Y183910D01*
X221101Y184737D01*
X221693Y185763D01*
X222000Y186908D01*
Y188092D01*
X221693Y189237D01*
X221101Y190263D01*
X220274Y191090D01*
Y203910D01*
X221101Y204737D01*
X221693Y205763D01*
X222000Y206908D01*
Y208092D01*
X221693Y209237D01*
X221101Y210263D01*
X220274Y211090D01*
Y216410D01*
X221101Y217237D01*
X221693Y218263D01*
X222000Y219408D01*
Y220592D01*
X221693Y221737D01*
X221503Y222067D01*
X221753Y222500D01*
X230500D01*
D02*
G37*
%LPC*%
G36*
X296847Y119500D02*
X293000D01*
Y115654D01*
X293072D01*
X294178Y115950D01*
X295169Y116522D01*
X295978Y117331D01*
X296550Y118322D01*
X296847Y119428D01*
Y119500D01*
D02*
G37*
G36*
X292000Y114347D02*
X291928D01*
X290822Y114050D01*
X289831Y113478D01*
X289022Y112669D01*
X288450Y111678D01*
X288154Y110572D01*
Y110500D01*
X292000D01*
Y114347D01*
D02*
G37*
G36*
X128485Y52500D02*
X128000D01*
Y43000D01*
X137500D01*
Y43485D01*
X137116Y45417D01*
X136362Y47237D01*
X135267Y48875D01*
X133875Y50267D01*
X132237Y51362D01*
X130417Y52116D01*
X128485Y52500D01*
D02*
G37*
G36*
X127000D02*
X126515D01*
X124583Y52116D01*
X122763Y51362D01*
X121125Y50267D01*
X119732Y48875D01*
X118638Y47237D01*
X117884Y45417D01*
X117500Y43485D01*
Y43000D01*
X127000D01*
Y52500D01*
D02*
G37*
G36*
X137500Y42000D02*
X128000D01*
Y32500D01*
X128485D01*
X130417Y32884D01*
X132237Y33638D01*
X133875Y34732D01*
X135267Y36125D01*
X136362Y37763D01*
X137116Y39583D01*
X137500Y41515D01*
Y42000D01*
D02*
G37*
G36*
X127000D02*
X117500D01*
Y41515D01*
X117884Y39583D01*
X118638Y37763D01*
X119732Y36125D01*
X121125Y34732D01*
X122763Y33638D01*
X124583Y32884D01*
X126515Y32500D01*
X127000D01*
Y42000D01*
D02*
G37*
G36*
X108485Y40000D02*
X108000D01*
Y30500D01*
X117500D01*
Y30985D01*
X117116Y32917D01*
X116362Y34737D01*
X115268Y36375D01*
X113875Y37767D01*
X112237Y38862D01*
X110417Y39616D01*
X108485Y40000D01*
D02*
G37*
G36*
X107000D02*
X106515D01*
X104583Y39616D01*
X102763Y38862D01*
X101125Y37767D01*
X99733Y36375D01*
X98638Y34737D01*
X97884Y32917D01*
X97500Y30985D01*
Y30500D01*
X107000D01*
Y40000D01*
D02*
G37*
G36*
X173092Y39500D02*
X171908D01*
X170763Y39193D01*
X169737Y38601D01*
X168899Y37763D01*
X168307Y36737D01*
X168000Y35592D01*
Y34408D01*
X168307Y33263D01*
X168899Y32237D01*
X169737Y31399D01*
X170763Y30807D01*
X171908Y30500D01*
X173092D01*
X173331Y30564D01*
X180698Y23198D01*
X181525Y22645D01*
X182500Y22451D01*
X193775D01*
X193899Y22237D01*
X194737Y21399D01*
X195763Y20807D01*
X196908Y20500D01*
X198092D01*
X199237Y20807D01*
X200263Y21399D01*
X201101Y22237D01*
X201693Y23263D01*
X202000Y24408D01*
Y25592D01*
X201693Y26737D01*
X201101Y27763D01*
X200263Y28601D01*
X199237Y29193D01*
X198092Y29500D01*
X196908D01*
X195763Y29193D01*
X194737Y28601D01*
X193899Y27763D01*
X193775Y27549D01*
X183556D01*
X176936Y34169D01*
X177000Y34408D01*
Y35592D01*
X176693Y36737D01*
X176101Y37763D01*
X175263Y38601D01*
X174237Y39193D01*
X173092Y39500D01*
D02*
G37*
G36*
X117500Y29500D02*
X108000D01*
Y20000D01*
X108485D01*
X110417Y20384D01*
X112237Y21138D01*
X113875Y22232D01*
X115268Y23625D01*
X116362Y25263D01*
X117116Y27083D01*
X117500Y29015D01*
Y29500D01*
D02*
G37*
G36*
X107000D02*
X97500D01*
Y29015D01*
X97884Y27083D01*
X98638Y25263D01*
X99733Y23625D01*
X101125Y22232D01*
X102763Y21138D01*
X104583Y20384D01*
X106515Y20000D01*
X107000D01*
Y29500D01*
D02*
G37*
%LPD*%
D13*
X70000Y65000D02*
Y81843D01*
X67500Y60000D02*
X75000Y52500D01*
X62500Y60000D02*
X67500D01*
X75000Y27500D02*
Y52500D01*
X71500Y96500D02*
X81000D01*
X71100Y96100D02*
X71500Y96500D01*
X81000D02*
X85000Y92500D01*
X72500Y102500D02*
X81914D01*
X89414Y95000D01*
X66843Y85000D02*
X70000Y81843D01*
X50000Y85000D02*
X66843D01*
X89414Y95000D02*
X90000Y94414D01*
X89414Y95000D02*
X89414D01*
X62500Y100000D02*
X72505Y110005D01*
Y137495D01*
X225657Y17500D02*
X252172D01*
X280000Y45328D01*
X302500Y30000D02*
X317500Y45000D01*
Y150000D01*
X312500Y155000D02*
X317500Y150000D01*
X305000Y45000D02*
X312500Y52500D01*
Y126854D01*
X304354Y135000D02*
X312500Y126854D01*
X290646Y45000D02*
X305000D01*
X280000Y45328D02*
Y67500D01*
X285000Y45000D02*
Y117500D01*
X247500Y7500D02*
X285000Y45000D01*
X271843Y70000D02*
X272500D01*
X236843Y35000D02*
X271843Y70000D01*
X222500Y35000D02*
X236843D01*
X200000Y12500D02*
X222500Y35000D01*
X92500Y67500D02*
X194343D01*
X201843Y60000D01*
X95000Y70000D02*
X220000D01*
X230000Y60000D01*
X42500Y180000D02*
X52500Y190000D01*
X42500Y60000D02*
Y180000D01*
Y60000D02*
X47500Y55000D01*
X42500Y20000D02*
Y40000D01*
X52500Y50000D01*
X42500Y20000D02*
X57500Y5000D01*
X85000Y7500D02*
X247500D01*
X57500Y5000D02*
X250646D01*
X290646Y45000D01*
X85000Y75000D02*
Y92500D01*
X77000Y33000D02*
X97500Y12500D01*
X77000Y33000D02*
Y84543D01*
X66543Y95000D02*
X77000Y84543D01*
X90000Y75000D02*
Y94414D01*
X85000Y75000D02*
X92500Y67500D01*
X90000Y75000D02*
X95000Y70000D01*
X60586Y95000D02*
X66543D01*
X201843Y60000D02*
X202500D01*
X97500Y12500D02*
X200000D01*
X75000Y27500D02*
X92500Y10000D01*
X202500D01*
X220000Y27500D01*
X70000Y22500D02*
X85000Y7500D01*
X182500Y25000D02*
X197500D01*
X172500Y35000D02*
X182500Y25000D01*
X65000Y55000D02*
X70000Y50000D01*
X47500Y55000D02*
X65000D01*
X70000Y22500D02*
Y50000D01*
X220000Y27500D02*
X250000D01*
X257500Y35000D01*
X57653Y97932D02*
X60586Y95000D01*
X57653Y97932D02*
Y115154D01*
X62500Y120000D01*
X45000Y90000D02*
Y132500D01*
X52500Y140000D01*
X45000Y90000D02*
X50000Y85000D01*
X33582Y182500D02*
X51082Y200000D01*
X52500D01*
X32500Y182500D02*
X33582D01*
X285000Y135000D02*
X304354D01*
X285000Y155000D02*
X312500D01*
X23498Y57500D02*
X17500D01*
Y60499D01*
X18500Y61499D01*
X19499D01*
X20499Y60499D01*
Y57500D01*
Y60499D01*
X21499Y61499D01*
X22498D01*
X23498Y60499D01*
Y57500D01*
X17500Y66497D02*
Y64498D01*
X18500Y63498D01*
X20499D01*
X21499Y64498D01*
Y66497D01*
X20499Y67497D01*
X19499D01*
Y63498D01*
X17500Y69496D02*
X21499D01*
Y72495D01*
X20499Y73495D01*
X17500D01*
X21499Y79493D02*
Y76494D01*
X20499Y75494D01*
X18500D01*
X17500Y76494D01*
Y79493D01*
Y81492D02*
Y84491D01*
X18500Y85491D01*
X19499Y84491D01*
Y82492D01*
X20499Y81492D01*
X21499Y82492D01*
Y85491D01*
X17500Y87490D02*
Y89490D01*
Y88490D01*
X21499D01*
Y87490D01*
X17500Y92489D02*
X23498D01*
X19499D02*
X21499Y95488D01*
X19499Y92489D02*
X17500Y95488D01*
X23498Y104485D02*
X17500D01*
Y107484D01*
X18500Y108484D01*
X22498D01*
X23498Y107484D01*
Y104485D01*
X21499Y111483D02*
Y113482D01*
X20499Y114482D01*
X17500D01*
Y111483D01*
X18500Y110483D01*
X19499Y111483D01*
Y114482D01*
X17500Y116481D02*
X21499D01*
Y119480D01*
X20499Y120480D01*
X17500D01*
Y122479D02*
Y124478D01*
Y123479D01*
X21499D01*
Y122479D01*
X17500Y130476D02*
Y128477D01*
X18500Y127477D01*
X20499D01*
X21499Y128477D01*
Y130476D01*
X20499Y131476D01*
X19499D01*
Y127477D01*
X17500Y133475D02*
Y135475D01*
Y134475D01*
X23498D01*
Y133475D01*
Y144472D02*
Y148471D01*
X22498D01*
X18500Y144472D01*
X17500D01*
Y148471D01*
Y151470D02*
Y153469D01*
X18500Y154469D01*
X20499D01*
X21499Y153469D01*
Y151470D01*
X20499Y150470D01*
X18500D01*
X17500Y151470D01*
Y156468D02*
Y158467D01*
Y157468D01*
X23498D01*
Y156468D01*
X22498Y162466D02*
X21499D01*
Y161466D01*
Y163466D01*
Y162466D01*
X18500D01*
X17500Y163466D01*
X21499Y167464D02*
Y169464D01*
X20499Y170463D01*
X17500D01*
Y167464D01*
X18500Y166465D01*
X19499Y167464D01*
Y170463D01*
X17500Y172463D02*
X21499D01*
Y175462D01*
X20499Y176462D01*
X17500D01*
D48*
X265000Y197500D02*
Y217500D01*
Y190000D02*
Y197500D01*
Y105000D02*
Y122500D01*
Y75000D02*
Y85000D01*
Y105000D01*
Y142500D02*
Y160000D01*
Y180000D01*
Y190000D01*
Y122500D02*
Y142500D01*
Y190000D02*
X292500D01*
D49*
X68690Y175244D02*
X82256D01*
X87500Y170000D01*
Y147500D02*
Y170000D01*
X78904Y138904D02*
X87500Y147500D01*
X78904Y132716D02*
Y138904D01*
D50*
X235000Y187500D02*
Y222500D01*
X217500Y187500D02*
Y220000D01*
Y170000D02*
Y187500D01*
X235000Y170000D02*
Y187500D01*
Y150000D02*
Y170000D01*
X217500Y150000D02*
Y170000D01*
X235000Y132500D02*
Y150000D01*
X217500Y132500D02*
Y150000D01*
X235000Y115000D02*
Y132500D01*
X217500Y115000D02*
Y132500D01*
X235000Y95000D02*
Y115000D01*
X217500Y95000D02*
Y115000D01*
X235000Y77500D02*
Y95000D01*
X217500Y77500D02*
Y95000D01*
X200000Y77500D02*
Y115000D01*
Y132500D01*
X182500Y77500D02*
Y115000D01*
Y132500D01*
X165000Y77500D02*
Y115000D01*
Y132500D01*
Y150000D01*
X182500Y132500D02*
Y150000D01*
X200000Y132500D02*
Y150000D01*
Y170000D01*
X182500Y150000D02*
Y170000D01*
X165000Y150000D02*
Y170000D01*
Y187500D01*
X182500Y170000D02*
Y187500D01*
X200000Y170000D02*
Y187500D01*
Y207500D01*
X182500Y187500D02*
Y207500D01*
X165000Y187500D02*
Y207500D01*
X147500Y170000D02*
Y207500D01*
Y150000D02*
Y170000D01*
Y132500D02*
Y150000D01*
Y115000D02*
Y132500D01*
Y77500D02*
Y95000D01*
Y115000D01*
X112500Y77500D02*
Y95000D01*
X112544Y95044D01*
X130000Y132500D02*
Y150000D01*
Y115000D02*
Y132500D01*
Y77500D02*
Y115000D01*
X112500Y132500D02*
Y150000D01*
Y115000D02*
Y132500D01*
Y95089D02*
Y115000D01*
Y95089D02*
X112544Y95044D01*
X130000Y150000D02*
Y170000D01*
Y187500D01*
X112500Y170000D02*
Y187500D01*
Y150000D02*
Y170000D01*
X130000Y187500D02*
Y207500D01*
X112500Y187500D02*
Y207500D01*
X68255Y139255D02*
X80000Y151000D01*
Y170474D01*
X68255Y115755D02*
Y139255D01*
X62500Y150000D02*
X70000Y157500D01*
Y167500D01*
X62500Y110000D02*
X68255Y115755D01*
D52*
X107500Y55000D02*
D03*
Y30000D02*
D03*
X127500Y42500D02*
D03*
D53*
X62500Y210000D02*
D03*
X302500D02*
D03*
D54*
X52500D02*
D03*
X62500Y200000D02*
D03*
X52500D02*
D03*
X62500Y190000D02*
D03*
X52500D02*
D03*
X62500Y180000D02*
D03*
X52500D02*
D03*
X62500Y170000D02*
D03*
X52500D02*
D03*
X62500Y160000D02*
D03*
X52500D02*
D03*
X62500Y150000D02*
D03*
X52500D02*
D03*
X62500Y140000D02*
D03*
X52500D02*
D03*
X62500Y130000D02*
D03*
X52500D02*
D03*
X62500Y120000D02*
D03*
X52500D02*
D03*
X62500Y110000D02*
D03*
X52500D02*
D03*
X62500Y100000D02*
D03*
X52500D02*
D03*
X62500Y90000D02*
D03*
X52500D02*
D03*
X62500Y80000D02*
D03*
X52500D02*
D03*
X62500Y70000D02*
D03*
X52500D02*
D03*
X62500Y60000D02*
D03*
X52500D02*
D03*
X62500Y50000D02*
D03*
X52500D02*
D03*
X62500Y40000D02*
D03*
X52500D02*
D03*
X62500Y30000D02*
D03*
X52500D02*
D03*
X292500Y210000D02*
D03*
X302500Y200000D02*
D03*
X292500D02*
D03*
X302500Y190000D02*
D03*
X292500D02*
D03*
X302500Y180000D02*
D03*
X292500D02*
D03*
X302500Y170000D02*
D03*
X292500D02*
D03*
X302500Y160000D02*
D03*
X292500D02*
D03*
X302500Y150000D02*
D03*
X292500D02*
D03*
X302500Y140000D02*
D03*
X292500D02*
D03*
X302500Y130000D02*
D03*
X292500D02*
D03*
X302500Y120000D02*
D03*
X292500D02*
D03*
X302500Y110000D02*
D03*
X292500D02*
D03*
X302500Y100000D02*
D03*
X292500D02*
D03*
X302500Y90000D02*
D03*
X292500D02*
D03*
X302500Y80000D02*
D03*
X292500D02*
D03*
X302500Y70000D02*
D03*
X292500D02*
D03*
X302500Y60000D02*
D03*
X292500D02*
D03*
X302500Y50000D02*
D03*
X292500D02*
D03*
X302500Y40000D02*
D03*
X292500D02*
D03*
X302500Y30000D02*
D03*
X292500D02*
D03*
D55*
X20000Y210000D02*
D03*
X335000D02*
D03*
Y20000D02*
D03*
X20000D02*
D03*
D56*
X70000Y65000D02*
D03*
X71100Y96100D02*
D03*
X72500Y102500D02*
D03*
X68690Y175244D02*
D03*
X280000Y67500D02*
D03*
X272500Y70000D02*
D03*
X265000Y85000D02*
D03*
Y160000D02*
D03*
Y217500D02*
D03*
X78904Y132716D02*
D03*
X235000Y222500D02*
D03*
X217500Y220000D02*
D03*
X80000Y170474D02*
D03*
X72505Y137495D02*
D03*
X70000Y167500D02*
D03*
X235000Y207500D02*
D03*
X217500D02*
D03*
X235000Y187500D02*
D03*
X217500D02*
D03*
X235000Y170000D02*
D03*
X217500D02*
D03*
X235000Y150000D02*
D03*
X217500D02*
D03*
X235000Y132500D02*
D03*
X217500D02*
D03*
X235000Y115000D02*
D03*
X217500D02*
D03*
X235000Y95000D02*
D03*
X217500D02*
D03*
X235000Y77500D02*
D03*
X217500D02*
D03*
X200000D02*
D03*
X182500D02*
D03*
X165000D02*
D03*
Y95000D02*
D03*
X182500D02*
D03*
X200000D02*
D03*
Y115000D02*
D03*
X182500D02*
D03*
X165000D02*
D03*
Y132500D02*
D03*
X182500D02*
D03*
X200000D02*
D03*
Y150000D02*
D03*
X182500D02*
D03*
X165000D02*
D03*
X200000Y170000D02*
D03*
X182500D02*
D03*
X200000Y187500D02*
D03*
X165000D02*
D03*
X182500D02*
D03*
X200000Y207500D02*
D03*
X182500D02*
D03*
X165000D02*
D03*
X147500D02*
D03*
Y187500D02*
D03*
Y170000D02*
D03*
Y150000D02*
D03*
Y132500D02*
D03*
Y115000D02*
D03*
Y95000D02*
D03*
Y77500D02*
D03*
X112500D02*
D03*
X130000D02*
D03*
X112500Y115000D02*
D03*
X130000D02*
D03*
Y132500D02*
D03*
X112500Y150000D02*
D03*
X130000D02*
D03*
Y170000D02*
D03*
Y187500D02*
D03*
Y207500D02*
D03*
X112500Y95000D02*
D03*
Y132500D02*
D03*
Y170000D02*
D03*
Y187500D02*
D03*
Y207500D02*
D03*
X265000Y105000D02*
D03*
X230000Y60000D02*
D03*
X202500D02*
D03*
X197500Y25000D02*
D03*
X225657Y17500D02*
D03*
X172500Y35000D02*
D03*
X265000Y75000D02*
D03*
X257500Y35000D02*
D03*
X32500Y182500D02*
D03*
X285000Y117500D02*
D03*
Y135000D02*
D03*
X165000Y170000D02*
D03*
X130000Y95000D02*
D03*
X285000Y155000D02*
D03*
X265000Y122500D02*
D03*
Y142500D02*
D03*
Y180000D02*
D03*
Y197500D02*
D03*
M02*
