M48
;Layer_Color=9474304
;FILE_FORMAT=2:5
INCH,LZ
;TYPE=PLATED
T1F00S00C0.02800
T2F00S00C0.04331
T3F00S00C0.11800
T4F00S00C0.13780
%
T01
X007Y0065
X01725Y0035
X01975Y0025
X02025Y006
X023
X0225657Y00175
X02575Y0035
X02725Y007
X028Y00675
X0265Y0075
Y0085
Y0105
Y01225
Y01425
Y016
Y018
Y01975
Y02175
X0235Y02225
Y02075
X02175
Y022
Y01875
X0235
Y017
X02175
Y015
X0235
Y01325
X02175
Y0115
X0235
Y0095
X02175
Y00775
X0235
X0285Y01175
Y0135
Y0155
X02Y015
Y01325
Y0115
X01825
X0165
Y01325
X01825
Y015
X0165
X01475
Y01325
Y0115
X013
X01125
Y01325
X013
Y015
X01125
Y017
X013
X01475
Y01875
X0165
X01825
Y017
X02
Y01875
Y02075
X01825
X0165
X01475
X013
X01125
Y01875
X013
X0165Y017
Y0095
Y00775
X01825
X02
Y0095
X01825
X01475
Y00775
X013
X01125
Y0095
X013
X00711Y00961
X00725Y01025
X0072505Y0137495
X0078904Y0132716
X008Y0170474
X007Y01675
X006869Y0175244
X00325Y01825
T02
X00525Y003
Y004
Y005
Y006
Y007
X00625
Y006
Y005
Y004
Y003
X02925
Y004
Y005
Y006
Y007
X03025
Y006
Y005
Y004
Y003
Y008
Y009
Y01
Y011
Y012
Y013
Y014
Y015
Y016
Y017
Y018
Y019
Y02
Y021
X02925
Y02
Y019
Y018
Y017
Y016
Y015
Y014
Y013
Y012
Y011
Y01
Y009
Y008
X00625
Y009
Y01
Y011
Y012
Y013
Y014
Y015
Y016
Y017
Y018
Y019
Y02
Y021
X00525
Y02
Y019
Y018
Y017
Y016
Y015
Y014
Y013
Y012
Y011
Y01
Y009
Y008
T03
X01075Y003
Y0055
X01275Y00425
T04
X002Y002
X0335
Y021
X002
M30
